# xmcd CD database file generated by OrangeCD 6.1
#
# Track frame offsets:
#	150
#	17579
#	32941
#	50893
#	70057
#	86476
#	107338
#	124020
#	142902
#	159991
#
# Disc length: 2324 seconds
#
# Revision: 2
# Processed by: cddbd v1.5.2PL0 Copyright (c) Steve Scherf et al.
# Submitted via: OrangeCD 6.1
#
DISCID=7a09120a
DTITLE=Joy Lynn White - Demos 2002
DYEAR=2001
DGENRE=Country
TTITLE0=Sunday
TTITLE1=My Heart Breaks
TTITLE2=I Turn On The Light
TTITLE3=Iris Loves Elmer
TTITLE4=Secret Crush
TTITLE5=Love Sometimes
TTITLE6=Girls With Apartments In Nashville
TTITLE7=An Exception
TTITLE8=On Her Own
TTITLE9=One More Time
EXTD=
EXTT0=
EXTT1=
EXTT2=
EXTT3=
EXTT4=
EXTT5=
EXTT6=
EXTT7=
EXTT8=
EXTT9=
PLAYORDER=
